<svg xmlns="http://www.w3.org/2000/svg" viewBox="0 0 680.58 571.93"><defs><style>.cls-1{fill:#2066FF;}</style></defs><g id="Layer_2" data-name="Layer 2"><g id="Layer_2-2" data-name="Layer 2"><path class="cls-1" d="M385.69,504.17c-29.15,43-72.87,67.76-126.06,67.76C190.41,571.93,146,532.58,146,470.65c0-80.88,72.14-131.16,187.27-131.16a637.89,637.89,0,0,1,72.13,4.37l5.1-27.69C419.94,262.25,393,228,342.7,228c-51.73,0-83.8,29.14-95.45,87.44H182.4C194.05,225.09,256,171.17,349.26,171.17c91.08,0,143.54,59.75,128.24,145.73L433.78,564.64h-59Zm-104.2,16c52.47,0,99.83-38.62,110.76-99.1l5.1-31.33a528.11,528.11,0,0,0-67.77-4.37c-72.13,0-114.39,29.14-114.39,78C215.19,499.07,240,520.2,281.49,520.2Z"/><path class="cls-1" d="M517.36,433.46V379.53c53.92-.73,90.35-25.5,96.19-64.85a42.65,42.65,0,0,1-15.31,2.19c-32.79,0-57.56-27-57.56-59.75,0-37.89,28.42-63.4,65.58-63.4,46.63,0,74.32,32.07,74.32,94C680.58,375.16,609.17,432.73,517.36,433.46Z"/><path class="cls-1" d="M437.53,137.72c-40.8,0-69.22-28.42-69.22-68.5C368.31,28.42,396.73,0,437.53,0c40.08,0,67.77,28.42,67.77,69.22C505.3,109.3,477.61,137.72,437.53,137.72Z"/><path class="cls-1" d="M101.28,433.45H0V44.35H93.27v75.06C121.69,69.86,182.16,40,244.83,40V144.91c-86-6.56-143.55,13.84-143.55,99.82Z"/></g></g></svg>